<?xml version="1.0" encoding="utf-8"?>
<!-- Generator: Adobe Illustrator 16.0.0, SVG Export Plug-In . SVG Version: 6.00 Build 0)  -->
<!DOCTYPE svg PUBLIC "-//W3C//DTD SVG 1.1//EN" "http://www.w3.org/Graphics/SVG/1.1/DTD/svg11.dtd">
<svg version="1.1" id="圖層_1" xmlns="http://www.w3.org/2000/svg" xmlns:xlink="http://www.w3.org/1999/xlink" x="0px" y="0px"
	 width="120.333px" height="60px" viewBox="0 0 120.333 60" enable-background="new 0 0 120.333 60" xml:space="preserve">
<g>
	<path fill-rule="evenodd" clip-rule="evenodd" fill="#ED1C24" d="M17.986,43.534c-0.654,0.624-1.297,1.282-1.986,1.889
		c-1.801,1.586-3.805,2.822-6.236,3.11c-2.975,0.354-5.482-0.631-7.334-2.986c-2.156-2.74-2.234-5.756-0.777-8.82
		c2.816-5.924,5.674-11.824,8.541-17.723c0.738-1.515,1.521-3.012,2.379-4.461c2.469-4.174,8.359-4.24,10.83-0.073
		c1.4,2.358,2.617,4.83,3.855,7.282c1.461,2.9,2.883,5.822,4.27,8.759c1.139,2.414,2.316,4.819,3.281,7.303
		c2.158,5.543-2.434,11.421-8.346,10.757c-2.076-0.232-3.896-1.113-5.508-2.413C19.941,45.336,18.992,44.428,17.986,43.534z
		 M19.652,41.743c0.463,0.416,0.996,0.895,1.527,1.379c1.316,1.201,2.719,2.251,4.473,2.746c3.174,0.897,6.277-0.835,7.045-3.951
		c0.352-1.433,0.072-2.803-0.535-4.105c-1.748-3.75-3.494-7.502-5.293-11.229c-1.35-2.799-2.768-5.567-4.186-8.333
		c-0.496-0.973-1.002-1.954-1.639-2.834c-1.318-1.809-3.887-2.101-5.488-0.578c-0.693,0.66-1.223,1.545-1.664,2.409
		c-1.979,3.864-3.932,7.741-5.834,11.643c-1.457,2.991-2.85,6.013-4.215,9.048c-0.328,0.726-0.564,1.547-0.611,2.339
		c-0.213,3.785,3.078,6.516,6.779,5.678c2.707-0.612,4.561-2.462,6.359-4.372c-0.635-0.885-1.27-1.716-1.848-2.586
		c-1.309-1.964-2.381-4.034-2.766-6.398c-0.289-1.797-0.078-3.52,1.012-5.014c1.549-2.129,3.715-2.975,6.287-2.578
		c3.482,0.539,5.543,3.361,5.326,6.728c-0.127,2.053-0.855,3.936-1.904,5.681C21.625,38.828,20.674,40.184,19.652,41.743z
		 M17.965,39.701c0.414-0.562,0.73-0.966,1.023-1.389c1.281-1.859,2.441-3.782,2.811-6.06c0.188-1.166,0.135-2.321-0.602-3.321
		c-1.133-1.539-3.563-1.984-5.244-0.989c-1.441,0.853-2.041,2.38-1.725,4.27c0.217,1.296,0.66,2.51,1.307,3.636
		C16.273,37.126,17.105,38.35,17.965,39.701z"/>
	<path fill-rule="evenodd" clip-rule="evenodd" fill="#ED1C24" d="M78.533,38.172c-0.131,0.863-0.217,0.936-1.109,0.936
		c-0.734,0-1.471-0.012-2.207,0.004c-0.316,0.007-0.443-0.094-0.436-0.429c0.02-0.812,0.006-1.625,0.006-2.438
		c0-5.741,0-11.482,0-17.223c0-0.803-0.08-0.713,0.74-0.717c0.814-0.006,1.627,0.021,2.441-0.012
		c0.422-0.016,0.529,0.137,0.525,0.538c-0.016,2.269-0.008,4.536-0.008,6.805c0,0.093,0,0.187,0,0.345
		c0.291-0.209,0.527-0.404,0.787-0.56c1.742-1.03,3.572-0.961,5.375-0.264c3.047,1.178,4.805,4.067,4.588,7.334
		c-0.186,2.835-1.469,4.991-4.031,6.248c-1.922,0.943-3.922,1.137-5.879,0C79.047,38.578,78.797,38.363,78.533,38.172z
		 M78.486,32.026c0,0.718-0.031,1.44,0.016,2.155c0.018,0.264,0.148,0.585,0.338,0.761c1.24,1.144,2.691,1.288,4.234,0.76
		c1.525-0.523,2.281-1.646,2.463-3.219c0.201-1.73-0.59-3.253-2.109-3.983c-1.555-0.743-3.568-0.43-4.695,0.754
		c-0.133,0.141-0.227,0.373-0.234,0.569C78.471,30.555,78.486,31.292,78.486,32.026z"/>
	<path fill-rule="evenodd" clip-rule="evenodd" fill="#ED1C24" d="M108.9,25.998c2.535-2.303,6.982-1.375,9.115,1.259
		c2.357,2.909,2.27,7.781-0.779,10.405c-2.014,1.739-4.34,2.35-6.932,1.375c-0.246-0.093-0.477-0.234-0.697-0.378
		c-0.221-0.143-0.422-0.315-0.678-0.507c-0.012,0.132-0.02,0.244-0.035,0.354c-0.051,0.354-0.248,0.587-0.613,0.591
		c-0.922,0.015-1.846,0.004-2.768,0.01c-0.248,0-0.334-0.12-0.318-0.351c0.008-0.094,0-0.187,0-0.281c0-6.52,0-13.041,0-19.562
		c0.002-0.609,0.004-0.611,0.613-0.611c0.797,0,1.596,0,2.393,0c0.697,0,0.697,0,0.697,0.725c0.002,2.126,0.002,4.254,0.002,6.38
		C108.9,25.576,108.9,25.744,108.9,25.998z M108.9,32.003c0,0.719,0.018,1.438-0.008,2.155c-0.012,0.347,0.111,0.589,0.361,0.813
		c1.273,1.141,3.119,1.345,4.771,0.514c1.338-0.67,2.076-2.181,1.916-3.864c-0.143-1.542-0.887-2.674-2.348-3.204
		c-1.572-0.571-3.084-0.436-4.365,0.757c-0.178,0.167-0.299,0.471-0.314,0.719C108.873,30.594,108.9,31.3,108.9,32.003z"/>
	<path fill-rule="evenodd" clip-rule="evenodd" fill="#ED1C24" d="M53.385,25.854c0.082-0.735,0.219-0.856,1.051-0.856
		c0.736,0,1.473,0.012,2.205-0.004c0.33-0.008,0.473,0.08,0.471,0.444c-0.01,4.412-0.008,8.824,0,13.234
		c0,0.323-0.096,0.445-0.426,0.439c-0.752-0.017-1.502-0.005-2.254-0.005c-0.861,0-0.98-0.107-1.055-0.988
		c-0.758,0.695-1.619,1.162-2.615,1.282c-2.76,0.327-5.053-0.595-6.688-2.83c-2.031-2.775-1.945-6.362,0.07-9.146
		c1.539-2.125,4.717-3.275,7.23-2.541C52.076,25.09,52.711,25.523,53.385,25.854z M53.404,32.098c0-0.719,0.025-1.439-0.014-2.156
		c-0.014-0.252-0.121-0.556-0.295-0.73c-0.803-0.806-1.799-1.145-2.934-1.092c-3.42,0.156-4.504,3.225-3.475,5.692
		c0.918,2.208,4.049,2.739,5.834,1.569c0.615-0.403,1.016-0.876,0.898-1.691C53.344,33.169,53.404,32.63,53.404,32.098z"/>
	<path fill-rule="evenodd" clip-rule="evenodd" fill="#ED1C24" d="M94.117,25.979c0.275-0.193,0.527-0.404,0.807-0.563
		c2.391-1.362,5.541-0.856,7.379,1.184c0.83,0.922,1.135,2.057,1.154,3.246c0.043,2.956,0.018,5.913,0.031,8.869
		c0.004,0.321-0.131,0.398-0.42,0.397c-0.922-0.012-1.848-0.025-2.77,0.005c-0.43,0.014-0.521-0.15-0.521-0.546
		c0.014-2.582,0.008-5.163,0.004-7.744c0-0.266,0-0.534-0.045-0.796c-0.266-1.578-1.154-2.226-3.264-1.946
		c-0.322,0.041-0.643,0.16-0.934,0.305c-0.781,0.389-1.324,0.844-1.289,1.913c0.096,2.751,0.021,5.507,0.041,8.259
		c0.004,0.435-0.119,0.569-0.553,0.556c-0.906-0.028-1.814-0.019-2.721-0.004c-0.32,0.004-0.441-0.101-0.441-0.432
		c0.008-4.412,0.008-8.823-0.002-13.235c0-0.354,0.135-0.461,0.471-0.453c0.658,0.018,1.314,0.006,1.973,0.006
		C93.885,24.998,94.004,25.104,94.117,25.979z"/>
	<path fill-rule="evenodd" clip-rule="evenodd" fill="#ED1C24" d="M73.441,28.166c-0.707-0.049-1.342-0.135-1.977-0.127
		c-0.881,0.01-1.686,0.289-2.395,0.831c-0.305,0.232-0.453,0.492-0.451,0.903c0.018,2.909,0.002,5.818,0.018,8.726
		c0.004,0.457-0.102,0.641-0.598,0.619c-0.889-0.04-1.781-0.024-2.672-0.006c-0.354,0.008-0.453-0.116-0.451-0.461
		c0.01-4.395,0.012-8.79-0.002-13.185c0-0.385,0.135-0.482,0.49-0.475c0.748,0.018,1.5,0.004,2.252,0.006
		c0.76,0,0.922,0.154,0.998,0.963c0.094-0.069,0.176-0.121,0.25-0.182c1.246-1.027,2.674-1.29,4.225-0.982
		c0.121,0.023,0.295,0.203,0.299,0.316C73.451,26.126,73.441,27.139,73.441,28.166z"/>
	<path fill-rule="evenodd" clip-rule="evenodd" fill="#ED1C24" d="M59.189,31.999c0-2.158,0.01-4.315-0.01-6.474
		c0-0.408,0.113-0.548,0.527-0.535c0.891,0.027,1.783,0.02,2.674,0.002c0.34-0.006,0.463,0.1,0.461,0.455
		c-0.01,4.408-0.008,8.819,0,13.229c0,0.323-0.102,0.441-0.428,0.436c-0.908-0.015-1.816-0.021-2.723,0.002
		c-0.383,0.01-0.512-0.104-0.51-0.501C59.199,36.409,59.191,34.205,59.189,31.999z"/>
	<path fill-rule="evenodd" clip-rule="evenodd" fill="#ED1C24" d="M61.043,18.301c1.346,0.004,2.441,1.105,2.443,2.447
		c0.002,1.344-1.152,2.504-2.471,2.49c-1.324-0.014-2.471-1.189-2.451-2.517C58.584,19.387,59.701,18.295,61.043,18.301z"/>
</g>
</svg>
